0
SECTION
2
HEADER
9
$INSUNITS
70
4
0
ENDSEC
0
SECTION
2
TABLES
0
TABLE
2
LTYPE
0
LTYPE
72
65
70
64
2
CONTINUOUS
3
______
73
0
40
0
0
ENDTAB
0
TABLE
2
LAYER
0
ENDTAB
0
ENDSEC
0
SECTION
2
ENTITIES
0
LINE
8
0
10
-10.5871081
20
-5.7042214
11
6.3165939
21
-10.2335547
0
LINE
8
0
10
6.3165939
20
-10.2335547
11
10.5871081
21
5.7042214
0
LINE
8
0
10
10.5871081
20
5.7042214
11
-6.3165939
21
10.2335547
0
LINE
8
0
10
-6.3165939
20
10.2335547
11
-10.5871081
21
-5.7042214
0
LINE
8
0
10
-6.1871843
20
10.7165177
11
10.7165177
21
6.1871844
0
LINE
8
0
10
10.7165177
20
6.1871844
11
14.9870319
21
22.1249605
0
LINE
8
0
10
14.9870319
20
22.1249605
11
-1.9166701
21
26.6542938
0
LINE
8
0
10
-1.9166701
20
26.6542938
11
-6.1871843
21
10.7165177
0
LINE
8
0
10
-1.7872605
20
27.1372567
11
15.1164415
21
22.6079234
0
LINE
8
0
10
15.1164415
20
22.6079234
11
19.3869557
21
38.5456995
0
LINE
8
0
10
19.3869557
20
38.5456995
11
2.4832537
21
43.0750328
0
LINE
8
0
10
2.4832537
20
43.0750328
11
-1.7872605
21
27.1372567
0
LINE
8
0
10
2.6126633
20
43.5579958
11
19.5163653
21
39.0286625
0
LINE
8
0
10
19.5163653
20
39.0286625
11
23.7868795
21
54.9664386
0
LINE
8
0
10
23.7868795
20
54.9664386
11
6.8831775
21
59.4957719
0
LINE
8
0
10
6.8831775
20
59.4957719
11
2.6126633
21
43.5579958
0
LINE
8
0
10
7.7654826
20
-10.6217833
11
24.6691846
21
-15.1511166
0
LINE
8
0
10
24.6691846
20
-15.1511166
11
28.9396988
21
0.7866595
0
LINE
8
0
10
28.9396988
20
0.7866595
11
12.0359968
21
5.3159928
0
LINE
8
0
10
12.0359968
20
5.3159928
11
7.7654826
21
-10.6217833
0
LINE
8
0
10
12.1654064
20
5.7989558
11
29.0691084
21
1.2696225
0
LINE
8
0
10
29.0691084
20
1.2696225
11
33.3396226
21
17.2073986
0
LINE
8
0
10
33.3396226
20
17.2073986
11
16.4359206
21
21.7367319
0
LINE
8
0
10
16.4359206
20
21.7367319
11
12.1654064
21
5.7989558
0
LINE
8
0
10
16.5653302
20
22.2196949
11
33.4690322
21
17.6903616
0
LINE
8
0
10
33.4690322
20
17.6903616
11
37.7395464
21
33.6281377
0
LINE
8
0
10
37.7395464
20
33.6281377
11
20.8358444
21
38.157471
0
LINE
8
0
10
20.8358444
20
38.157471
11
16.5653302
21
22.2196949
0
LINE
8
0
10
20.965254
20
38.6404339
11
37.868956
21
34.1111006
0
LINE
8
0
10
37.868956
20
34.1111006
11
42.1394702
21
50.0488767
0
LINE
8
0
10
42.1394702
20
50.0488767
11
25.2357682
21
54.57821
0
LINE
8
0
10
25.2357682
20
54.57821
11
20.965254
21
38.6404339
0
LINE
8
0
10
27.4121685
20
-10.709716
11
44.3158705
21
-15.2390493
0
LINE
8
0
10
44.3158705
20
-15.2390493
11
48.5863847
21
0.6987268
0
LINE
8
0
10
48.5863847
20
0.6987268
11
31.6826827
21
5.2280601
0
LINE
8
0
10
31.6826827
20
5.2280601
11
27.4121685
21
-10.709716
0
LINE
8
0
10
31.8120923
20
5.7110231
11
48.7157943
21
1.1816898
0
LINE
8
0
10
48.7157943
20
1.1816898
11
52.9863085
21
17.1194659
0
LINE
8
0
10
52.9863085
20
17.1194659
11
36.0826065
21
21.6487992
0
LINE
8
0
10
36.0826065
20
21.6487992
11
31.8120923
21
5.7110231
0
LINE
8
0
10
36.2120161
20
22.1317621
11
53.1157181
21
17.6024288
0
LINE
8
0
10
53.1157181
20
17.6024288
11
57.3862323
21
33.5402049
0
LINE
8
0
10
57.3862323
20
33.5402049
11
40.4825303
21
38.0695382
0
LINE
8
0
10
40.4825303
20
38.0695382
11
36.2120161
21
22.1317621
0
LINE
8
0
10
40.6119399
20
38.5525012
11
57.5156419
21
34.0231679
0
LINE
8
0
10
57.5156419
20
34.0231679
11
61.7861561
21
49.960944
0
LINE
8
0
10
61.7861561
20
49.960944
11
44.8824541
21
54.4902773
0
LINE
8
0
10
44.8824541
20
54.4902773
11
40.6119399
21
38.5525012
0
LINE
8
0
10
47.0588545
20
-10.7976487
11
63.9625565
21
-15.326982
0
LINE
8
0
10
63.9625565
20
-15.326982
11
68.2330707
21
0.6107941
0
LINE
8
0
10
68.2330707
20
0.6107941
11
51.3293687
21
5.1401274
0
LINE
8
0
10
51.3293687
20
5.1401274
11
47.0588545
21
-10.7976487
0
LINE
8
0
10
51.4587783
20
5.6230903
11
68.3624803
21
1.093757
0
LINE
8
0
10
68.3624803
20
1.093757
11
72.6329945
21
17.0315331
0
LINE
8
0
10
72.6329945
20
17.0315331
11
55.7292925
21
21.5608664
0
LINE
8
0
10
55.7292925
20
21.5608664
11
51.4587783
21
5.6230903
0
LINE
8
0
10
55.8587021
20
22.0438294
11
72.7624041
21
17.5144961
0
LINE
8
0
10
72.7624041
20
17.5144961
11
77.0329183
21
33.4522722
0
LINE
8
0
10
77.0329183
20
33.4522722
11
60.1292163
21
37.9816055
0
LINE
8
0
10
60.1292163
20
37.9816055
11
55.8587021
21
22.0438294
0
LINE
8
0
10
60.2586259
20
38.4645685
11
77.1623279
21
33.9352352
0
LINE
8
0
10
77.1623279
20
33.9352352
11
81.4328421
21
49.8730113
0
LINE
8
0
10
81.4328421
20
49.8730113
11
64.5291401
21
54.4023446
0
LINE
8
0
10
64.5291401
20
54.4023446
11
60.2586259
21
38.4645685
0
LINE
8
0
10
63.8585309
20
-21.5107656
11
80.7622329
21
-26.0400989
0
LINE
8
0
10
80.7622329
20
-26.0400989
11
85.0327471
21
-10.1023228
0
LINE
8
0
10
85.0327471
20
-10.1023228
11
68.1290451
21
-5.5729895
0
LINE
8
0
10
68.1290451
20
-5.5729895
11
63.8585309
21
-21.5107656
0
LINE
8
0
10
68.2584547
20
-5.0900265
11
85.1621567
21
-9.6193598
0
LINE
8
0
10
85.1621567
20
-9.6193598
11
89.4326709
21
6.3184163
0
LINE
8
0
10
89.4326709
20
6.3184163
11
72.5289689
21
10.8477496
0
LINE
8
0
10
72.5289689
20
10.8477496
11
68.2584547
21
-5.0900265
0
LINE
8
0
10
72.6583785
20
11.3307126
11
89.5620805
21
6.8013793
0
LINE
8
0
10
89.5620805
20
6.8013793
11
93.8325947
21
22.7391554
0
LINE
8
0
10
93.8325947
20
22.7391554
11
76.9288927
21
27.2684887
0
LINE
8
0
10
76.9288927
20
27.2684887
11
72.6583785
21
11.3307126
0
LINE
8
0
10
77.0583023
20
27.7514516
11
93.9620043
21
23.2221183
0
LINE
8
0
10
93.9620043
20
23.2221183
11
98.2325185
21
39.1598944
0
LINE
8
0
10
98.2325185
20
39.1598944
11
81.3288165
21
43.6892277
0
LINE
8
0
10
81.3288165
20
43.6892277
11
77.0583023
21
27.7514516
0
LINE
8
0
10
81.6934835
20
-28.360179
11
98.5971855
21
-32.8895123
0
LINE
8
0
10
98.5971855
20
-32.8895123
11
102.8676997
21
-16.9517362
0
LINE
8
0
10
102.8676997
20
-16.9517362
11
85.9639977
21
-12.4224029
0
LINE
8
0
10
85.9639977
20
-12.4224029
11
81.6934835
21
-28.360179
0
LINE
8
0
10
86.0934073
20
-11.9394399
11
102.9971093
21
-16.4687732
0
LINE
8
0
10
102.9971093
20
-16.4687732
11
107.2676235
21
-0.5309971
0
LINE
8
0
10
107.2676235
20
-0.5309971
11
90.3639215
21
3.9983362
0
LINE
8
0
10
90.3639215
20
3.9983362
11
86.0934073
21
-11.9394399
0
LINE
8
0
10
90.4933311
20
4.4812992
11
107.3970331
21
-0.0480341
0
LINE
8
0
10
107.3970331
20
-0.0480341
11
111.6675473
21
15.889742
0
LINE
8
0
10
111.6675473
20
15.889742
11
94.7638453
21
20.4190753
0
LINE
8
0
10
94.7638453
20
20.4190753
11
90.4933311
21
4.4812992
0
LINE
8
0
10
94.8932549
20
20.9020382
11
111.7969569
21
16.3727049
0
LINE
8
0
10
111.7969569
20
16.3727049
11
116.0674711
21
32.310481
0
LINE
8
0
10
116.0674711
20
32.310481
11
99.1637691
21
36.8398143
0
LINE
8
0
10
99.1637691
20
36.8398143
11
94.8932549
21
20.9020382
0
LINE
8
0
10
57.1985861
20
-42.5023146
11
74.1022881
21
-47.0316479
0
LINE
8
0
10
74.1022881
20
-47.0316479
11
78.3728023
21
-31.0938718
0
LINE
8
0
10
78.3728023
20
-31.0938718
11
61.4691003
21
-26.5645385
0
LINE
8
0
10
61.4691003
20
-26.5645385
11
57.1985861
21
-42.5023146
0
LINE
8
0
10
75.5511768
20
-47.4198765
11
92.4548788
21
-51.9492098
0
LINE
8
0
10
92.4548788
20
-51.9492098
11
96.725393
21
-36.0114337
0
LINE
8
0
10
96.725393
20
-36.0114337
11
79.821691
21
-31.4821004
0
LINE
8
0
10
79.821691
20
-31.4821004
11
75.5511768
21
-47.4198765
0
LINE
8
0
10
91.2844715
20
-58.0615248
11
105.6196323
21
-68.0991125
0
LINE
8
0
10
105.6196323
20
-68.0991125
11
115.0836435
21
-54.5831038
0
LINE
8
0
10
115.0836435
20
-54.5831038
11
100.7484827
21
-44.5455161
0
LINE
8
0
10
100.7484827
20
-44.5455161
11
91.2844715
21
-58.0615248
0
LINE
8
0
10
101.0352709
20
-44.1359401
11
115.3704317
21
-54.1735278
0
LINE
8
0
10
115.3704317
20
-54.1735278
11
124.8344429
21
-40.6575191
0
LINE
8
0
10
124.8344429
20
-40.6575191
11
110.4992821
21
-30.6199314
0
LINE
8
0
10
110.4992821
20
-30.6199314
11
101.0352709
21
-44.1359401
0
LINE
8
0
10
107.0917075
20
-69.5807994
11
118.3404906
21
-82.9865772
0
LINE
8
0
10
118.3404906
20
-82.9865772
11
130.9802239
21
-72.3805816
0
LINE
8
0
10
130.9802239
20
-72.3805816
11
119.7314408
21
-58.9748038
0
LINE
8
0
10
119.7314408
20
-58.9748038
11
107.0917075
21
-69.5807994
0
LINE
8
0
10
293.6834061
20
-10.2335547
11
310.5871081
21
-5.7042214
0
LINE
8
0
10
310.5871081
20
-5.7042214
11
306.3165939
21
10.2335547
0
LINE
8
0
10
306.3165939
20
10.2335547
11
289.4128919
21
5.7042214
0
LINE
8
0
10
289.4128919
20
5.7042214
11
293.6834061
21
-10.2335547
0
LINE
8
0
10
289.2834823
20
6.1871844
11
306.1871843
21
10.7165177
0
LINE
8
0
10
306.1871843
20
10.7165177
11
301.9166701
21
26.6542938
0
LINE
8
0
10
301.9166701
20
26.6542938
11
285.0129681
21
22.1249605
0
LINE
8
0
10
285.0129681
20
22.1249605
11
289.2834823
21
6.1871844
0
LINE
8
0
10
284.8835585
20
22.6079234
11
301.7872605
21
27.1372567
0
LINE
8
0
10
301.7872605
20
27.1372567
11
297.5167463
21
43.0750328
0
LINE
8
0
10
297.5167463
20
43.0750328
11
280.6130443
21
38.5456995
0
LINE
8
0
10
280.6130443
20
38.5456995
11
284.8835585
21
22.6079234
0
LINE
8
0
10
280.4836347
20
39.0286625
11
297.3873367
21
43.5579958
0
LINE
8
0
10
297.3873367
20
43.5579958
11
293.1168225
21
59.4957719
0
LINE
8
0
10
293.1168225
20
59.4957719
11
276.2131205
21
54.9664386
0
LINE
8
0
10
276.2131205
20
54.9664386
11
280.4836347
21
39.0286625
0
LINE
8
0
10
275.3308154
20
-15.1511166
11
292.2345174
21
-10.6217833
0
LINE
8
0
10
292.2345174
20
-10.6217833
11
287.9640032
21
5.3159928
0
LINE
8
0
10
287.9640032
20
5.3159928
11
271.0603012
21
0.7866595
0
LINE
8
0
10
271.0603012
20
0.7866595
11
275.3308154
21
-15.1511166
0
LINE
8
0
10
270.9308916
20
1.2696225
11
287.8345936
21
5.7989558
0
LINE
8
0
10
287.8345936
20
5.7989558
11
283.5640794
21
21.7367319
0
LINE
8
0
10
283.5640794
20
21.7367319
11
266.6603774
21
17.2073986
0
LINE
8
0
10
266.6603774
20
17.2073986
11
270.9308916
21
1.2696225
0
LINE
8
0
10
266.5309678
20
17.6903616
11
283.4346698
21
22.2196949
0
LINE
8
0
10
283.4346698
20
22.2196949
11
279.1641556
21
38.157471
0
LINE
8
0
10
279.1641556
20
38.157471
11
262.2604536
21
33.6281377
0
LINE
8
0
10
262.2604536
20
33.6281377
11
266.5309678
21
17.6903616
0
LINE
8
0
10
262.131044
20
34.1111006
11
279.034746
21
38.6404339
0
LINE
8
0
10
279.034746
20
38.6404339
11
274.7642318
21
54.57821
0
LINE
8
0
10
274.7642318
20
54.57821
11
257.8605298
21
50.0488767
0
LINE
8
0
10
257.8605298
20
50.0488767
11
262.131044
21
34.1111006
0
LINE
8
0
10
255.6841295
20
-15.2390493
11
272.5878315
21
-10.709716
0
LINE
8
0
10
272.5878315
20
-10.709716
11
268.3173173
21
5.2280601
0
LINE
8
0
10
268.3173173
20
5.2280601
11
251.4136153
21
0.6987268
0
LINE
8
0
10
251.4136153
20
0.6987268
11
255.6841295
21
-15.2390493
0
LINE
8
0
10
251.2842057
20
1.1816898
11
268.1879077
21
5.7110231
0
LINE
8
0
10
268.1879077
20
5.7110231
11
263.9173935
21
21.6487992
0
LINE
8
0
10
263.9173935
20
21.6487992
11
247.0136915
21
17.1194659
0
LINE
8
0
10
247.0136915
20
17.1194659
11
251.2842057
21
1.1816898
0
LINE
8
0
10
246.8842819
20
17.6024288
11
263.7879839
21
22.1317621
0
LINE
8
0
10
263.7879839
20
22.1317621
11
259.5174697
21
38.0695382
0
LINE
8
0
10
259.5174697
20
38.0695382
11
242.6137677
21
33.5402049
0
LINE
8
0
10
242.6137677
20
33.5402049
11
246.8842819
21
17.6024288
0
LINE
8
0
10
242.4843581
20
34.0231679
11
259.3880601
21
38.5525012
0
LINE
8
0
10
259.3880601
20
38.5525012
11
255.1175459
21
54.4902773
0
LINE
8
0
10
255.1175459
20
54.4902773
11
238.2138439
21
49.960944
0
LINE
8
0
10
238.2138439
20
49.960944
11
242.4843581
21
34.0231679
0
LINE
8
0
10
236.0374435
20
-15.326982
11
252.9411455
21
-10.7976487
0
LINE
8
0
10
252.9411455
20
-10.7976487
11
248.6706313
21
5.1401274
0
LINE
8
0
10
248.6706313
20
5.1401274
11
231.7669293
21
0.6107941
0
LINE
8
0
10
231.7669293
20
0.6107941
11
236.0374435
21
-15.326982
0
LINE
8
0
10
231.6375197
20
1.093757
11
248.5412217
21
5.6230903
0
LINE
8
0
10
248.5412217
20
5.6230903
11
244.2707075
21
21.5608664
0
LINE
8
0
10
244.2707075
20
21.5608664
11
227.3670055
21
17.0315331
0
LINE
8
0
10
227.3670055
20
17.0315331
11
231.6375197
21
1.093757
0
LINE
8
0
10
227.2375959
20
17.5144961
11
244.1412979
21
22.0438294
0
LINE
8
0
10
244.1412979
20
22.0438294
11
239.8707837
21
37.9816055
0
LINE
8
0
10
239.8707837
20
37.9816055
11
222.9670817
21
33.4522722
0
LINE
8
0
10
222.9670817
20
33.4522722
11
227.2375959
21
17.5144961
0
LINE
8
0
10
222.8376721
20
33.9352352
11
239.7413741
21
38.4645685
0
LINE
8
0
10
239.7413741
20
38.4645685
11
235.4708599
21
54.4023446
0
LINE
8
0
10
235.4708599
20
54.4023446
11
218.5671579
21
49.8730113
0
LINE
8
0
10
218.5671579
20
49.8730113
11
222.8376721
21
33.9352352
0
LINE
8
0
10
219.2377671
20
-26.0400989
11
236.1414691
21
-21.5107656
0
LINE
8
0
10
236.1414691
20
-21.5107656
11
231.8709549
21
-5.5729895
0
LINE
8
0
10
231.8709549
20
-5.5729895
11
214.9672529
21
-10.1023228
0
LINE
8
0
10
214.9672529
20
-10.1023228
11
219.2377671
21
-26.0400989
0
LINE
8
0
10
214.8378433
20
-9.6193598
11
231.7415453
21
-5.0900265
0
LINE
8
0
10
231.7415453
20
-5.0900265
11
227.4710311
21
10.8477496
0
LINE
8
0
10
227.4710311
20
10.8477496
11
210.5673291
21
6.3184163
0
LINE
8
0
10
210.5673291
20
6.3184163
11
214.8378433
21
-9.6193598
0
LINE
8
0
10
210.4379195
20
6.8013793
11
227.3416215
21
11.3307126
0
LINE
8
0
10
227.3416215
20
11.3307126
11
223.0711073
21
27.2684887
0
LINE
8
0
10
223.0711073
20
27.2684887
11
206.1674053
21
22.7391554
0
LINE
8
0
10
206.1674053
20
22.7391554
11
210.4379195
21
6.8013793
0
LINE
8
0
10
206.0379957
20
23.2221183
11
222.9416977
21
27.7514516
0
LINE
8
0
10
222.9416977
20
27.7514516
11
218.6711835
21
43.6892277
0
LINE
8
0
10
218.6711835
20
43.6892277
11
201.7674815
21
39.1598944
0
LINE
8
0
10
201.7674815
20
39.1598944
11
206.0379957
21
23.2221183
0
LINE
8
0
10
201.4028145
20
-32.8895123
11
218.3065165
21
-28.360179
0
LINE
8
0
10
218.3065165
20
-28.360179
11
214.0360023
21
-12.4224029
0
LINE
8
0
10
214.0360023
20
-12.4224029
11
197.1323003
21
-16.9517362
0
LINE
8
0
10
197.1323003
20
-16.9517362
11
201.4028145
21
-32.8895123
0
LINE
8
0
10
197.0028907
20
-16.4687732
11
213.9065927
21
-11.9394399
0
LINE
8
0
10
213.9065927
20
-11.9394399
11
209.6360785
21
3.9983362
0
LINE
8
0
10
209.6360785
20
3.9983362
11
192.7323765
21
-0.5309971
0
LINE
8
0
10
192.7323765
20
-0.5309971
11
197.0028907
21
-16.4687732
0
LINE
8
0
10
192.6029669
20
-0.0480341
11
209.5066689
21
4.4812992
0
LINE
8
0
10
209.5066689
20
4.4812992
11
205.2361547
21
20.4190753
0
LINE
8
0
10
205.2361547
20
20.4190753
11
188.3324527
21
15.889742
0
LINE
8
0
10
188.3324527
20
15.889742
11
192.6029669
21
-0.0480341
0
LINE
8
0
10
188.2030431
20
16.3727049
11
205.1067451
21
20.9020382
0
LINE
8
0
10
205.1067451
20
20.9020382
11
200.8362309
21
36.8398143
0
LINE
8
0
10
200.8362309
20
36.8398143
11
183.9325289
21
32.310481
0
LINE
8
0
10
183.9325289
20
32.310481
11
188.2030431
21
16.3727049
0
LINE
8
0
10
225.8977119
20
-47.0316479
11
242.8014139
21
-42.5023146
0
LINE
8
0
10
242.8014139
20
-42.5023146
11
238.5308997
21
-26.5645385
0
LINE
8
0
10
238.5308997
20
-26.5645385
11
221.6271977
21
-31.0938718
0
LINE
8
0
10
221.6271977
20
-31.0938718
11
225.8977119
21
-47.0316479
0
LINE
8
0
10
207.5451212
20
-51.9492098
11
224.4488232
21
-47.4198765
0
LINE
8
0
10
224.4488232
20
-47.4198765
11
220.178309
21
-31.4821004
0
LINE
8
0
10
220.178309
20
-31.4821004
11
203.274607
21
-36.0114337
0
LINE
8
0
10
203.274607
20
-36.0114337
11
207.5451212
21
-51.9492098
0
LINE
8
0
10
194.3803677
20
-68.0991125
11
208.7155285
21
-58.0615248
0
LINE
8
0
10
208.7155285
20
-58.0615248
11
199.2515173
21
-44.5455161
0
LINE
8
0
10
199.2515173
20
-44.5455161
11
184.9163565
21
-54.5831038
0
LINE
8
0
10
184.9163565
20
-54.5831038
11
194.3803677
21
-68.0991125
0
LINE
8
0
10
184.6295683
20
-54.1735278
11
198.9647291
21
-44.1359401
0
LINE
8
0
10
198.9647291
20
-44.1359401
11
189.5007179
21
-30.6199314
0
LINE
8
0
10
189.5007179
20
-30.6199314
11
175.1655571
21
-40.6575191
0
LINE
8
0
10
175.1655571
20
-40.6575191
11
184.6295683
21
-54.1735278
0
LINE
8
0
10
181.6595094
20
-82.9865772
11
192.9082925
21
-69.5807994
0
LINE
8
0
10
192.9082925
20
-69.5807994
11
180.2685592
21
-58.9748038
0
LINE
8
0
10
180.2685592
20
-58.9748038
11
169.0197761
21
-72.3805816
0
LINE
8
0
10
169.0197761
20
-72.3805816
11
181.6595094
21
-82.9865772
0
ENDSEC
0
EOF