0
SECTION
2
HEADER
9
$INSUNITS
70
4
0
ENDSEC
0
SECTION
2
TABLES
0
TABLE
2
LTYPE
0
LTYPE
72
65
70
64
2
CONTINUOUS
3
______
73
0
40
0
0
ENDTAB
0
TABLE
2
LAYER
0
ENDTAB
0
ENDSEC
0
SECTION
2
ENTITIES
0
LINE
8
0
10
-15.7508262
20
-4.6910374
11
3.2096897
21
66.0705712
0
LINE
8
0
10
10.9868195
20
70.5606995
11
140.7564427
21
35.7890337
0
LINE
8
0
10
145.2587126
20
28.0579053
11
128.5974753
21
-36.0398679
0
LINE
8
0
10
129.028903
20
-40.4066245
11
139.9480096
21
-62.9381275
0
LINE
8
0
10
138.3932851
20
-70.5053089
11
123.0184816
21
-83.8346795
0
LINE
8
0
10
114.4649217
20
-83.6210522
11
89.7492641
21
-59.9316715
0
LINE
8
0
10
87.4644102
20
-58.5264568
11
57.2442839
21
-47.885038
0
LINE
8
0
10
53.1727765
20
-40.438562
11
54.2286841
21
-35.9592922
0
LINE
8
0
10
49.6509346
20
-28.3579493
11
-11.2200426
21
-12.4789166
0
ARC
8
0
10
9.3433188
20
64.4270705
40
6.35
50
75.0000021
51
165.0000021
0
ARC
8
0
10
139.112942
20
29.6554047
40
6.35
50
345.4292858
51
75.0000021
0
ARC
8
0
10
134.7432459
20
-37.6373673
40
6.35
50
165.4292858
51
205.8555325
0
ARC
8
0
10
134.2336668
20
-65.7073848
40
6.35
50
310.9240479
51
25.8555325
0
ARC
8
0
10
118.8588632
20
-79.0367553
40
6.35
50
226.2145943
51
310.9240479
0
ARC
8
0
10
85.3553225
20
-64.5159684
40
6.35
50
46.2145943
51
70.6012964
0
ARC
8
0
10
59.3533715
20
-41.8955264
40
6.35
50
166.7357065
51
250.6012964
0
ARC
8
0
10
48.0480891
20
-34.5023278
40
6.35
50
346.7357065
51
75.3794389
0
ARC
8
0
10
-9.6171971
20
-6.3345381
40
6.35
50
165.0000021
51
255.3794389
0
LINE
8
0
10
-10.5871081
20
-5.7042214
11
6.3165939
21
-10.2335547
0
LINE
8
0
10
6.3165939
20
-10.2335547
11
10.5871081
21
5.7042214
0
LINE
8
0
10
10.5871081
20
5.7042214
11
-6.3165939
21
10.2335547
0
LINE
8
0
10
-6.3165939
20
10.2335547
11
-10.5871081
21
-5.7042214
0
LINE
8
0
10
-6.1871843
20
10.7165177
11
10.7165177
21
6.1871844
0
LINE
8
0
10
10.7165177
20
6.1871844
11
14.9870319
21
22.1249605
0
LINE
8
0
10
14.9870319
20
22.1249605
11
-1.9166701
21
26.6542938
0
LINE
8
0
10
-1.9166701
20
26.6542938
11
-6.1871843
21
10.7165177
0
LINE
8
0
10
-1.7872605
20
27.1372567
11
15.1164415
21
22.6079234
0
LINE
8
0
10
15.1164415
20
22.6079234
11
19.3869557
21
38.5456995
0
LINE
8
0
10
19.3869557
20
38.5456995
11
2.4832537
21
43.0750328
0
LINE
8
0
10
2.4832537
20
43.0750328
11
-1.7872605
21
27.1372567
0
LINE
8
0
10
2.6126633
20
43.5579958
11
19.5163653
21
39.0286625
0
LINE
8
0
10
19.5163653
20
39.0286625
11
23.7868795
21
54.9664386
0
LINE
8
0
10
23.7868795
20
54.9664386
11
6.8831775
21
59.4957719
0
LINE
8
0
10
6.8831775
20
59.4957719
11
2.6126633
21
43.5579958
0
LINE
8
0
10
7.7654826
20
-10.6217833
11
24.6691846
21
-15.1511166
0
LINE
8
0
10
24.6691846
20
-15.1511166
11
28.9396988
21
0.7866595
0
LINE
8
0
10
28.9396988
20
0.7866595
11
12.0359968
21
5.3159928
0
LINE
8
0
10
12.0359968
20
5.3159928
11
7.7654826
21
-10.6217833
0
LINE
8
0
10
12.1654064
20
5.7989558
11
29.0691084
21
1.2696225
0
LINE
8
0
10
29.0691084
20
1.2696225
11
33.3396226
21
17.2073986
0
LINE
8
0
10
33.3396226
20
17.2073986
11
16.4359206
21
21.7367319
0
LINE
8
0
10
16.4359206
20
21.7367319
11
12.1654064
21
5.7989558
0
LINE
8
0
10
16.5653302
20
22.2196949
11
33.4690322
21
17.6903616
0
LINE
8
0
10
33.4690322
20
17.6903616
11
37.7395464
21
33.6281377
0
LINE
8
0
10
37.7395464
20
33.6281377
11
20.8358444
21
38.157471
0
LINE
8
0
10
20.8358444
20
38.157471
11
16.5653302
21
22.2196949
0
LINE
8
0
10
20.965254
20
38.6404339
11
37.868956
21
34.1111006
0
LINE
8
0
10
37.868956
20
34.1111006
11
42.1394702
21
50.0488767
0
LINE
8
0
10
42.1394702
20
50.0488767
11
25.2357682
21
54.57821
0
LINE
8
0
10
25.2357682
20
54.57821
11
20.965254
21
38.6404339
0
LINE
8
0
10
27.4121685
20
-10.709716
11
44.3158705
21
-15.2390493
0
LINE
8
0
10
44.3158705
20
-15.2390493
11
48.5863847
21
0.6987268
0
LINE
8
0
10
48.5863847
20
0.6987268
11
31.6826827
21
5.2280601
0
LINE
8
0
10
31.6826827
20
5.2280601
11
27.4121685
21
-10.709716
0
LINE
8
0
10
31.8120923
20
5.7110231
11
48.7157943
21
1.1816898
0
LINE
8
0
10
48.7157943
20
1.1816898
11
52.9863085
21
17.1194659
0
LINE
8
0
10
52.9863085
20
17.1194659
11
36.0826065
21
21.6487992
0
LINE
8
0
10
36.0826065
20
21.6487992
11
31.8120923
21
5.7110231
0
LINE
8
0
10
36.2120161
20
22.1317621
11
53.1157181
21
17.6024288
0
LINE
8
0
10
53.1157181
20
17.6024288
11
57.3862323
21
33.5402049
0
LINE
8
0
10
57.3862323
20
33.5402049
11
40.4825303
21
38.0695382
0
LINE
8
0
10
40.4825303
20
38.0695382
11
36.2120161
21
22.1317621
0
LINE
8
0
10
40.6119399
20
38.5525012
11
57.5156419
21
34.0231679
0
LINE
8
0
10
57.5156419
20
34.0231679
11
61.7861561
21
49.960944
0
LINE
8
0
10
61.7861561
20
49.960944
11
44.8824541
21
54.4902773
0
LINE
8
0
10
44.8824541
20
54.4902773
11
40.6119399
21
38.5525012
0
LINE
8
0
10
47.0588545
20
-10.7976487
11
63.9625565
21
-15.326982
0
LINE
8
0
10
63.9625565
20
-15.326982
11
68.2330707
21
0.6107941
0
LINE
8
0
10
68.2330707
20
0.6107941
11
51.3293687
21
5.1401274
0
LINE
8
0
10
51.3293687
20
5.1401274
11
47.0588545
21
-10.7976487
0
LINE
8
0
10
51.4587783
20
5.6230903
11
68.3624803
21
1.093757
0
LINE
8
0
10
68.3624803
20
1.093757
11
72.6329945
21
17.0315331
0
LINE
8
0
10
72.6329945
20
17.0315331
11
55.7292925
21
21.5608664
0
LINE
8
0
10
55.7292925
20
21.5608664
11
51.4587783
21
5.6230903
0
LINE
8
0
10
55.8587021
20
22.0438294
11
72.7624041
21
17.5144961
0
LINE
8
0
10
72.7624041
20
17.5144961
11
77.0329183
21
33.4522722
0
LINE
8
0
10
77.0329183
20
33.4522722
11
60.1292163
21
37.9816055
0
LINE
8
0
10
60.1292163
20
37.9816055
11
55.8587021
21
22.0438294
0
LINE
8
0
10
60.2586259
20
38.4645685
11
77.1623279
21
33.9352352
0
LINE
8
0
10
77.1623279
20
33.9352352
11
81.4328421
21
49.8730113
0
LINE
8
0
10
81.4328421
20
49.8730113
11
64.5291401
21
54.4023446
0
LINE
8
0
10
64.5291401
20
54.4023446
11
60.2586259
21
38.4645685
0
LINE
8
0
10
63.8585309
20
-21.5107656
11
80.7622329
21
-26.0400989
0
LINE
8
0
10
80.7622329
20
-26.0400989
11
85.0327471
21
-10.1023228
0
LINE
8
0
10
85.0327471
20
-10.1023228
11
68.1290451
21
-5.5729895
0
LINE
8
0
10
68.1290451
20
-5.5729895
11
63.8585309
21
-21.5107656
0
LINE
8
0
10
68.2584547
20
-5.0900265
11
85.1621567
21
-9.6193598
0
LINE
8
0
10
85.1621567
20
-9.6193598
11
89.4326709
21
6.3184163
0
LINE
8
0
10
89.4326709
20
6.3184163
11
72.5289689
21
10.8477496
0
LINE
8
0
10
72.5289689
20
10.8477496
11
68.2584547
21
-5.0900265
0
LINE
8
0
10
72.6583785
20
11.3307126
11
89.5620805
21
6.8013793
0
LINE
8
0
10
89.5620805
20
6.8013793
11
93.8325947
21
22.7391554
0
LINE
8
0
10
93.8325947
20
22.7391554
11
76.9288927
21
27.2684887
0
LINE
8
0
10
76.9288927
20
27.2684887
11
72.6583785
21
11.3307126
0
LINE
8
0
10
77.0583023
20
27.7514516
11
93.9620043
21
23.2221183
0
LINE
8
0
10
93.9620043
20
23.2221183
11
98.2325185
21
39.1598944
0
LINE
8
0
10
98.2325185
20
39.1598944
11
81.3288165
21
43.6892277
0
LINE
8
0
10
81.3288165
20
43.6892277
11
77.0583023
21
27.7514516
0
LINE
8
0
10
81.6934835
20
-28.360179
11
98.5971855
21
-32.8895123
0
LINE
8
0
10
98.5971855
20
-32.8895123
11
102.8676997
21
-16.9517362
0
LINE
8
0
10
102.8676997
20
-16.9517362
11
85.9639977
21
-12.4224029
0
LINE
8
0
10
85.9639977
20
-12.4224029
11
81.6934835
21
-28.360179
0
LINE
8
0
10
86.0934073
20
-11.9394399
11
102.9971093
21
-16.4687732
0
LINE
8
0
10
102.9971093
20
-16.4687732
11
107.2676235
21
-0.5309971
0
LINE
8
0
10
107.2676235
20
-0.5309971
11
90.3639215
21
3.9983362
0
LINE
8
0
10
90.3639215
20
3.9983362
11
86.0934073
21
-11.9394399
0
LINE
8
0
10
90.4933311
20
4.4812992
11
107.3970331
21
-0.0480341
0
LINE
8
0
10
107.3970331
20
-0.0480341
11
111.6675473
21
15.889742
0
LINE
8
0
10
111.6675473
20
15.889742
11
94.7638453
21
20.4190753
0
LINE
8
0
10
94.7638453
20
20.4190753
11
90.4933311
21
4.4812992
0
LINE
8
0
10
94.8932549
20
20.9020382
11
111.7969569
21
16.3727049
0
LINE
8
0
10
111.7969569
20
16.3727049
11
116.0674711
21
32.310481
0
LINE
8
0
10
116.0674711
20
32.310481
11
99.1637691
21
36.8398143
0
LINE
8
0
10
99.1637691
20
36.8398143
11
94.8932549
21
20.9020382
0
LINE
8
0
10
57.1985861
20
-42.5023146
11
74.1022881
21
-47.0316479
0
LINE
8
0
10
74.1022881
20
-47.0316479
11
78.3728023
21
-31.0938718
0
LINE
8
0
10
78.3728023
20
-31.0938718
11
61.4691003
21
-26.5645385
0
LINE
8
0
10
61.4691003
20
-26.5645385
11
57.1985861
21
-42.5023146
0
LINE
8
0
10
75.5511768
20
-47.4198765
11
92.4548788
21
-51.9492098
0
LINE
8
0
10
92.4548788
20
-51.9492098
11
96.725393
21
-36.0114337
0
LINE
8
0
10
96.725393
20
-36.0114337
11
79.821691
21
-31.4821004
0
LINE
8
0
10
79.821691
20
-31.4821004
11
75.5511768
21
-47.4198765
0
LINE
8
0
10
91.2844715
20
-58.0615248
11
105.6196323
21
-68.0991125
0
LINE
8
0
10
105.6196323
20
-68.0991125
11
115.0836435
21
-54.5831038
0
LINE
8
0
10
115.0836435
20
-54.5831038
11
100.7484827
21
-44.5455161
0
LINE
8
0
10
100.7484827
20
-44.5455161
11
91.2844715
21
-58.0615248
0
LINE
8
0
10
101.0352709
20
-44.1359401
11
115.3704317
21
-54.1735278
0
LINE
8
0
10
115.3704317
20
-54.1735278
11
124.8344429
21
-40.6575191
0
LINE
8
0
10
124.8344429
20
-40.6575191
11
110.4992821
21
-30.6199314
0
LINE
8
0
10
110.4992821
20
-30.6199314
11
101.0352709
21
-44.1359401
0
LINE
8
0
10
107.0917075
20
-69.5807994
11
118.3404906
21
-82.9865772
0
LINE
8
0
10
118.3404906
20
-82.9865772
11
130.9802239
21
-72.3805816
0
LINE
8
0
10
130.9802239
20
-72.3805816
11
119.7314408
21
-58.9748038
0
LINE
8
0
10
119.7314408
20
-58.9748038
11
107.0917075
21
-69.5807994
0
CIRCLE
8
0
10
9.9850407
20
65.0833425
40
1.05
0
CIRCLE
8
0
10
114.5179052
20
37.3844288
40
1.05
0
CIRCLE
8
0
10
-12.3566173
20
-7.8648607
40
1.05
0
CIRCLE
8
0
10
83.1844661
20
-52.778094
40
1.05
0
CIRCLE
8
0
10
55.8433871
20
-25.7300627
40
1.05
0
CIRCLE
8
0
10
136.1658818
20
-66.0059167
40
1.05
0
ENDSEC
0
EOF