0
SECTION
2
HEADER
9
$INSUNITS
70
4
0
ENDSEC
0
SECTION
2
TABLES
0
TABLE
2
LTYPE
0
LTYPE
72
65
70
64
2
CONTINUOUS
3
______
73
0
40
0
0
ENDTAB
0
TABLE
2
LAYER
0
ENDTAB
0
ENDSEC
0
SECTION
2
ENTITIES
0
LINE
8
0
10
-14.9337743
20
-4.5395357
11
29.0158508
21
-16.3158023
0
LINE
8
0
10
-10.6632601
20
11.3982404
11
26.0419213
21
1.5631167
0
LINE
8
0
10
-10.6632601
20
11.3982404
11
-14.9337743
21
-4.5395357
0
LINE
8
0
10
-10.5338505
20
11.8812034
11
26.1713308
21
2.0460797
0
LINE
8
0
10
-6.2633363
20
27.8189795
11
30.4418451
21
17.9838558
0
LINE
8
0
10
-6.2633363
20
27.8189795
11
-10.5338505
21
11.8812034
0
LINE
8
0
10
-6.1339267
20
28.3019424
11
30.5712546
21
18.4668187
0
LINE
8
0
10
-1.8634125
20
44.2397185
11
34.8417689
21
34.4045948
0
LINE
8
0
10
-1.8634125
20
44.2397185
11
-6.1339267
21
28.3019424
0
LINE
8
0
10
-1.7340029
20
44.7226815
11
34.9711784
21
34.8875578
0
LINE
8
0
10
2.5365113
20
60.6604576
11
39.2416927
21
50.8253339
0
LINE
8
0
10
2.5365113
20
60.6604576
11
-1.7340029
21
44.7226815
0
LINE
8
0
10
29.0158508
20
-16.3158023
11
30.309946
21
-11.4861731
0
LINE
8
0
10
34.5804603
20
4.4516029
11
34.7098698
21
4.934566
0
LINE
8
0
10
38.9803841
20
20.872342
11
39.1097936
21
21.355305
0
LINE
8
0
10
43.3803079
20
37.293081
11
43.5097174
21
37.7760441
0
LINE
8
0
10
30.309946
20
-11.4861731
11
48.6625367
21
-16.403735
0
LINE
8
0
10
48.6625367
20
-16.403735
11
49.9566319
21
-11.5741058
0
LINE
8
0
10
45.6886073
20
1.4751839
11
34.5804603
21
4.4516029
0
LINE
8
0
10
26.1713308
20
2.0460797
11
26.0419213
21
1.5631167
0
LINE
8
0
10
34.7098698
20
4.934566
11
45.8180168
21
1.9581469
0
LINE
8
0
10
54.2271462
20
4.3636703
11
54.3565557
21
4.8466332
0
LINE
8
0
10
50.0885311
20
17.895923
11
38.9803841
21
20.872342
0
LINE
8
0
10
30.5712546
20
18.4668187
11
30.4418451
21
17.9838558
0
LINE
8
0
10
39.1097936
20
21.355305
11
50.2179406
21
18.3788859
0
LINE
8
0
10
58.62707
20
20.7844093
11
58.7564795
21
21.2673723
0
LINE
8
0
10
54.4884549
20
34.316662
11
43.3803079
21
37.293081
0
LINE
8
0
10
34.9711784
20
34.8875578
11
34.8417689
21
34.4045948
0
LINE
8
0
10
43.5097174
20
37.7760441
11
54.6178644
21
34.799625
0
LINE
8
0
10
63.0269938
20
37.2051484
11
63.1564033
21
37.6881114
0
LINE
8
0
10
58.8883787
20
50.7374011
11
40.5357879
21
55.654963
0
LINE
8
0
10
40.5357879
20
55.654963
11
39.2416927
21
50.8253339
0
LINE
8
0
10
49.9566319
20
-11.5741058
11
61.064779
21
-14.5505249
0
LINE
8
0
10
71.0268226
20
-6.3494466
11
71.1562322
21
-5.8664836
0
LINE
8
0
10
65.3352932
20
1.3872512
11
54.2271462
21
4.3636703
0
LINE
8
0
10
45.8180168
20
1.9581469
11
45.6886073
21
1.4751839
0
LINE
8
0
10
54.3565557
20
4.8466332
11
65.4647028
21
1.8702142
0
LINE
8
0
10
75.4267464
20
10.0712924
11
75.556156
21
10.5542555
0
LINE
8
0
10
69.735217
20
17.8079902
11
58.62707
21
20.7844093
0
LINE
8
0
10
50.2179406
20
18.3788859
11
50.0885311
21
17.895923
0
LINE
8
0
10
58.7564795
20
21.2673723
11
69.8646266
21
18.2909533
0
LINE
8
0
10
79.8266702
20
26.4920315
11
79.9560798
21
26.9749945
0
LINE
8
0
10
74.1351408
20
34.2287293
11
63.0269938
21
37.2051484
0
LINE
8
0
10
54.6178644
20
34.799625
11
54.4884549
21
34.316662
0
LINE
8
0
10
63.1564033
20
37.6881114
11
74.2645504
21
34.7116923
0
LINE
8
0
10
84.226594
20
42.9127706
11
85.7795083
21
48.7083256
0
LINE
8
0
10
85.7795083
20
48.7083256
11
60.1824739
21
55.5670303
0
LINE
8
0
10
60.1824739
20
55.5670303
11
58.8883787
21
50.7374011
0
LINE
8
0
10
59.5118647
20
-20.3460799
11
77.8644554
21
-25.2636417
0
LINE
8
0
10
88.8617752
20
-13.1988601
11
88.9911848
21
-12.715897
0
LINE
8
0
10
82.1349696
20
-9.3258657
11
71.0268226
21
-6.3494466
0
LINE
8
0
10
61.064779
20
-14.5505249
11
59.5118647
21
-20.3460799
0
LINE
8
0
10
71.1562322
20
-5.8664836
11
82.2643792
21
-8.8429026
0
LINE
8
0
10
93.261699
20
3.221879
11
93.3911086
21
3.7048421
0
LINE
8
0
10
86.5348934
20
7.0948734
11
75.4267464
21
10.0712924
0
LINE
8
0
10
65.4647028
20
1.8702142
11
65.3352932
21
1.3872512
0
LINE
8
0
10
75.556156
20
10.5542555
11
86.664303
21
7.5778365
0
LINE
8
0
10
97.6616228
20
19.6426181
11
97.7910324
21
20.1255811
0
LINE
8
0
10
90.9348172
20
23.5156125
11
79.8266702
21
26.4920315
0
LINE
8
0
10
69.8646266
20
18.2909533
11
69.735217
21
17.8079902
0
LINE
8
0
10
79.9560798
20
26.9749945
11
91.0642268
21
23.9985755
0
LINE
8
0
10
102.0615466
20
36.0633571
11
102.5791847
21
37.9952087
0
LINE
8
0
10
102.5791847
20
37.9952087
11
84.226594
21
42.9127706
0
LINE
8
0
10
74.2645504
20
34.7116923
11
74.1351408
21
34.2287293
0
LINE
8
0
10
77.3468173
20
-27.1954933
11
102.6552454
21
-33.9768662
0
LINE
8
0
10
103.1563191
20
-33.2612588
11
107.2143659
21
-18.1164219
0
LINE
8
0
10
107.2143659
20
-18.1164219
11
88.8617752
21
-13.1988601
0
LINE
8
0
10
77.8644554
20
-25.2636417
11
77.3468173
21
-27.1954933
0
LINE
8
0
10
88.9911848
20
-12.715897
11
107.3437755
21
-17.6334589
0
LINE
8
0
10
107.3437755
20
-17.6334589
11
111.6142897
21
-1.6956828
0
LINE
8
0
10
111.6142897
20
-1.6956828
11
93.261699
21
3.221879
0
LINE
8
0
10
82.2643792
20
-8.8429026
11
82.1349696
21
-9.3258657
0
LINE
8
0
10
93.3911086
20
3.7048421
11
111.7436993
21
-1.2127198
0
LINE
8
0
10
111.7436993
20
-1.2127198
11
116.0142135
21
14.7250563
0
LINE
8
0
10
116.0142135
20
14.7250563
11
97.6616228
21
19.6426181
0
LINE
8
0
10
86.664303
20
7.5778365
11
86.5348934
21
7.0948734
0
LINE
8
0
10
97.7910324
20
20.1255811
11
116.1436231
21
15.2080192
0
LINE
8
0
10
116.1436231
20
15.2080192
11
120.4141373
21
31.1457953
0
LINE
8
0
10
120.4141373
20
31.1457953
11
102.0615466
21
36.0633571
0
LINE
8
0
10
91.0642268
20
23.9985755
11
90.9348172
21
23.5156125
0
LINE
8
0
10
52.8519199
20
-41.3376289
11
90.4474995
21
-51.4113341
0
LINE
8
0
10
57.1224341
20
-25.3998528
11
100.5188899
21
-37.0278981
0
LINE
8
0
10
57.1224341
20
-25.3998528
11
52.8519199
21
-41.3376289
0
LINE
8
0
10
99.3582675
20
-43.572077
11
99.4959823
21
-43.0581186
0
LINE
8
0
10
87.5982873
20
-55.4804309
11
106.174339
21
-68.4875223
0
LINE
8
0
10
118.5161539
20
-57.5264814
11
118.7698277
21
-57.1641977
0
LINE
8
0
10
118.7698277
20
-57.1641977
11
117.4177666
21
-56.2174743
0
LINE
8
0
10
116.6540462
20
-55.6827116
11
99.3582675
21
-43.572077
0
LINE
8
0
10
90.4474995
20
-51.4113341
11
87.5982873
21
-55.4804309
0
LINE
8
0
10
99.4959823
20
-43.0581186
11
119.0566159
21
-56.7546217
0
LINE
8
0
10
119.0566159
20
-56.7546217
11
128.5206271
21
-43.238613
0
LINE
8
0
10
128.5206271
20
-43.238613
11
106.8130979
21
-28.0388375
0
LINE
8
0
10
106.8130979
20
-28.0388375
11
103.1563191
21
-33.2612588
0
LINE
8
0
10
102.6552454
20
-33.9768662
11
100.5188899
21
-37.0278981
0
LINE
8
0
10
106.174339
20
-68.4875223
11
121.2330349
21
-86.4337772
0
LINE
8
0
10
121.2330349
20
-86.4337772
11
133.8727682
21
-75.8277816
0
LINE
8
0
10
133.8727682
20
-75.8277816
11
118.5161539
21
-57.5264814
0
LINE
8
0
10
117.4177666
20
-56.2174743
11
116.8388965
21
-55.5276038
0
LINE
8
0
10
116.8388965
20
-55.5276038
11
116.6540462
21
-55.6827116
0
ENDSEC
0
EOF